<?xml version="1.0" standalone="no"?>
<!DOCTYPE svg PUBLIC "-//W3C//DTD SVG 20010904//EN"
 "http://www.w3.org/TR/2001/REC-SVG-20010904/DTD/svg10.dtd">
<svg version="1.0" xmlns="http://www.w3.org/2000/svg"
 width="316.000000pt" height="316.000000pt" viewBox="0 0 316.000000 316.000000"
 preserveAspectRatio="xMidYMid meet">
<metadata>
Created by potrace 1.11, written by Peter Selinger 2001-2013
</metadata>
<g transform="translate(0.000000,316.000000) scale(0.100000,-0.100000)"
fill="#000000" stroke="none">
<path d="M1400 3145 c-8 -2 -49 -9 -90 -15 -186 -31 -434 -131 -603 -245 -356
-239 -595 -601 -673 -1020 -28 -149 -26 -452 4 -592 70 -327 213 -586 448
-814 93 -90 212 -182 279 -218 55 -29 116 -28 152 3 l28 24 3 367 3 366 60
-55 c161 -150 380 -225 614 -213 126 7 214 29 330 86 168 80 300 213 386 386
70 141 91 231 92 380 0 140 -18 233 -65 343 -61 140 -183 295 -275 349 -98 57
-193 12 -193 -90 0 -39 15 -63 95 -147 125 -132 182 -253 192 -409 22 -338
-234 -627 -574 -648 -117 -7 -195 8 -300 58 -140 67 -255 191 -309 334 -84
225 -35 460 137 649 31 33 64 76 74 95 39 77 -12 171 -93 171 -116 0 -300
-230 -374 -466 -21 -67 -22 -87 -26 -651 -1 -321 -7 -583 -11 -583 -4 0 -37
30 -72 68 -262 273 -392 610 -376 972 25 565 373 1025 911 1205 56 19 141 41
189 48 l87 14 0 -789 c0 -686 2 -793 15 -818 40 -77 170 -80 219 -6 15 23 16
105 16 916 l0 892 -29 29 c-29 29 -30 29 -143 28 -62 -1 -120 -3 -128 -4z"/>
<path d="M1973 3050 c-42 -25 -62 -85 -43 -130 19 -45 61 -76 185 -135 416
-199 686 -550 759 -984 20 -121 21 -330 0 -446 -75 -434 -388 -823 -800 -995
-82 -34 -234 -75 -316 -85 l-58 -6 0 85 c0 81 -1 86 -30 115 -57 57 -162 51
-200 -12 -18 -28 -20 -51 -20 -190 0 -178 9 -216 59 -241 35 -19 95 -20 229
-5 472 51 884 301 1144 694 351 531 348 1210 -9 1749 -132 200 -368 408 -587
518 -175 88 -253 105 -313 68z"/>
</g>
</svg>
